<svg xmlns="http://www.w3.org/2000/svg" width="440" height="360" viewBox="0 0 440 360">
<style>text{font-family:'Segoe UI',Helvetica,Arial,sans-serif} .m{font-family:Consolas,'SF Mono',Menlo,monospace}</style>
<defs>
<linearGradient id="bg" x1="0" y1="0" x2="1" y2="1"><stop offset="0" stop-color="#021861"/><stop offset="1" stop-color="#010a36"/></linearGradient>
<linearGradient id="g" x1="0" y1="0" x2="1" y2="1"><stop offset="0" stop-color="#fff" stop-opacity=".16"/><stop offset="1" stop-color="#fff" stop-opacity=".04"/></linearGradient>
<linearGradient id="s" x1="0" y1="0" x2="1" y2="1"><stop offset="0" stop-color="#fff" stop-opacity=".55"/><stop offset=".5" stop-color="#fff" stop-opacity=".08"/><stop offset="1" stop-color="#8fb3f5" stop-opacity=".35"/></linearGradient>
<linearGradient id="t" x1="0" y1="0" x2="1" y2="0"><stop offset="0" stop-color="#fff"/><stop offset="1" stop-color="#9dbcf7"/></linearGradient>
<linearGradient id="ln" x1="0" y1="0" x2="1" y2="0"><stop offset="0" stop-color="#DE1110"/><stop offset="1" stop-color="#255DCE" stop-opacity="0"/></linearGradient>
<filter id="b" x="-50%" y="-50%" width="200%" height="200%"><feGaussianBlur stdDeviation="45"/></filter>
<clipPath id="c"><rect width="440" height="360" rx="28"/></clipPath>
</defs>
<rect width="440" height="360" rx="28" fill="url(#bg)"/><g clip-path="url(#c)" filter="url(#b)">
<circle cx="52.8" cy="72.0" r="198.00000000000003" fill="#255DCE" opacity=".75"></circle>
<circle cx="404.8" cy="342.0" r="144.0" fill="#DE1110" opacity=".55"></circle>
<circle cx="264.0" cy="7.2" r="108.0" fill="#4c86f0" opacity=".45"/></g>
<rect x=".75" y=".75" width="438.5" height="358.5" rx="27" fill="none" stroke="url(#s)" stroke-width="1.5"/>
<rect x="16" y="16" width="408" height="328" rx="20" fill="url(#g)" stroke="url(#s)" stroke-width="1.2" /><rect x="38" y="38" width="102" height="24" rx="12" fill="#255DCE" fill-opacity=".45" stroke="#7ea8f5"/><text x="52" y="54" font-size="10.5" fill="#fff" font-weight="700" letter-spacing="1.5">FULL-STACK</text><text x="38" y="96" font-size="19" fill="#fff" font-weight="700" >Rental Wedding Dress Website</text><text x="38" y="128" font-size="13.5" fill="#c9d8fa" font-weight="400" >Full-stack booking platform digitising wedding dress</text><text x="38" y="148" font-size="13.5" fill="#c9d8fa" font-weight="400" >rentals, with inventory management and seamless</text><text x="38" y="168" font-size="13.5" fill="#c9d8fa" font-weight="400" >reservation flow.</text><rect x="38" y="196" width="56" height="26" rx="13" fill="#255DCE" fill-opacity=".38" stroke="#7ea8f5" stroke-opacity=".7"/><text x="51" y="214" font-size="13" fill="#fff" font-weight="500" >HTML</text><rect x="104.16" y="196" width="49" height="26" rx="13" fill="#255DCE" fill-opacity=".38" stroke="#7ea8f5" stroke-opacity=".7"/><text x="117.16" y="214" font-size="13" fill="#fff" font-weight="500" >CSS</text><rect x="162.78" y="196" width="49" height="26" rx="13" fill="#255DCE" fill-opacity=".38" stroke="#7ea8f5" stroke-opacity=".7"/><text x="175.78" y="214" font-size="13" fill="#fff" font-weight="500" >PHP</text><rect x="221.4" y="196" width="64" height="26" rx="13" fill="#255DCE" fill-opacity=".38" stroke="#7ea8f5" stroke-opacity=".7"/><text x="234.4" y="214" font-size="13" fill="#fff" font-weight="500" >MySQL</text><text x="38" y="326" font-size="13" fill="#ff7a79" font-weight="600" >View project ↗</text></svg>